HIERARCHY
ROOT root
{
	OFFSET 0.000000 0.000000 0.000000
	CHANNELS 6 Xposition Yposition Zposition Zrotation Yrotation Xrotation
	JOINT lhip
	{
		OFFSET 0.058581 -0.082280 -0.017664
		CHANNELS 3 Zrotation Yrotation Xrotation
		JOINT lknee
		{
			OFFSET 0.043451 -0.386469 0.008037
			CHANNELS 3 Zrotation Yrotation Xrotation
			JOINT lankle
			{
				OFFSET -0.014790 -0.426874 -0.037428
				CHANNELS 3 Zrotation Yrotation Xrotation
				JOINT ltoe
				{
					OFFSET 0.041054 -0.060286 0.122042
					CHANNELS 3 Zrotation Yrotation Xrotation
					End Site
					{
						OFFSET 0.000000 0.000000 0.000000
					}
				}
			}
		}
	}
	JOINT rhip
	{
		OFFSET -0.060310 -0.090513 -0.013543
		CHANNELS 3 Zrotation Yrotation Xrotation
		JOINT rknee
		{
			OFFSET -0.043257 -0.383688 -0.004843
			CHANNELS 3 Zrotation Yrotation Xrotation
			JOINT rankle
			{
				OFFSET 0.019056 -0.420046 -0.034562
				CHANNELS 3 Zrotation Yrotation Xrotation
				JOINT rtoe
				{
					OFFSET -0.034840 -0.062106 0.130323
					CHANNELS 3 Zrotation Yrotation Xrotation
					End Site
					{
						OFFSET 0.000000 0.000000 0.000000
					}
				}
			}
		}
	}
	JOINT lowerback
	{
		OFFSET 0.004439 0.124404 -0.038385
		CHANNELS 3 Zrotation Yrotation Xrotation
		JOINT upperback
		{
			OFFSET 0.004488 0.137956 0.026820
			CHANNELS 3 Zrotation Yrotation Xrotation
			JOINT chest
			{
				OFFSET -0.002265 0.056032 0.002855
				CHANNELS 3 Zrotation Yrotation Xrotation
				JOINT lowerneck
				{
					OFFSET -0.013390 0.211636 -0.033468
					CHANNELS 3 Zrotation Yrotation Xrotation
					JOINT upperneck
					{
						OFFSET 0.010113 0.088937 0.050410
						CHANNELS 3 Zrotation Yrotation Xrotation
						End Site
						{
							OFFSET 0.000000 0.000000 0.000000
						}
					}
				}
				JOINT lclavicle
				{
					OFFSET 0.071702 0.114000 -0.018898
					CHANNELS 3 Zrotation Yrotation Xrotation
					JOINT lshoulder
					{
						OFFSET 0.122921 0.045205 -0.019046
						CHANNELS 3 Zrotation Yrotation Xrotation
						JOINT lelbow
						{
							OFFSET 0.255332 -0.015649 -0.022946
							CHANNELS 3 Zrotation Yrotation Xrotation
							JOINT lwrist
							{
								OFFSET 0.265709 0.012698 -0.007375
								CHANNELS 3 Zrotation Yrotation Xrotation
								End Site
								{
									OFFSET 0.000000 0.000000 0.000000
								}
							}
						}
					}
				}
				JOINT rclavicle
				{
					OFFSET -0.082954 0.112472 -0.023707
					CHANNELS 3 Zrotation Yrotation Xrotation
					JOINT rshoulder
					{
						OFFSET -0.113228 0.046853 -0.008472
						CHANNELS 3 Zrotation Yrotation Xrotation
						JOINT relbow
						{
							OFFSET -0.260127 -0.014369 -0.031269
							CHANNELS 3 Zrotation Yrotation Xrotation
							JOINT rwrist
							{
								OFFSET -0.269108 0.006794 -0.006027
								CHANNELS 3 Zrotation Yrotation Xrotation
								End Site
								{
									OFFSET 0.000000 0.000000 0.000000
								}
							}
						}
					}
				}
			}
		}
	}
}
MOTION
Frames: 5
Frame Time: 0.033333
2.646107 0.302159 0.880799 -83.388008 -3.496910 100.972616 -2.804881 -9.188588 -16.172963 -12.975583 -5.374114 46.819115 3.031700 11.598287 -32.777747 0.000000 -0.000000 0.000000 -6.248658 1.492449 -33.412511 -1.531764 -13.851511 87.243252 7.953562 -4.045663 -9.487679 0.000000 -0.000000 0.000000 -2.377906 -2.978776 30.551226 1.632694 -0.148304 -4.210353 0.611463 -0.980730 -0.614328 -0.966004 -1.612190 -20.831466 1.219967 -6.084669 -4.039261 -24.764250 -4.059630 -4.407379 -48.074071 -13.379010 16.632358 135.548985 -72.395471 -110.138242 11.943930 -12.467005 -14.011351 27.079933 6.220898 -0.363943 48.450445 -6.063161 13.299127 -11.538469 40.666818 -6.351186 -4.553586 8.760576 -6.735676 
2.573091 0.304576 0.872791 -80.255904 -1.927047 100.818733 -1.102996 -7.132771 -8.540647 -13.210128 -12.144345 42.844751 1.623742 11.532723 -34.290218 0.000000 -0.000000 0.000000 -8.362125 -0.462880 -45.471785 -2.682957 -16.726673 90.980899 7.095704 -3.619720 -14.155429 0.000000 -0.000000 0.000000 -0.913734 -6.911014 31.981816 2.432335 0.147265 -4.093791 1.238059 -2.353761 -0.994438 -1.952069 -0.087723 -22.009285 1.313625 -5.750364 -4.761185 -23.264926 -6.162358 -4.683302 -49.402724 -19.894142 15.319892 136.873135 -66.617933 -110.381387 15.049172 -12.398883 -15.719275 26.445667 4.610046 1.194455 47.723499 -10.172749 11.907501 -11.328737 42.840608 -5.613368 -7.474149 9.178994 -10.364662 
2.491787 0.307608 0.870118 -77.402248 -0.044564 101.316478 2.456852 -4.774746 -0.448917 -12.446948 -18.561406 36.393083 -0.953098 10.424344 -32.966284 0.000000 -0.000000 0.000000 -10.171880 -2.590997 -55.172536 -2.198070 -19.317593 87.576251 6.961027 -3.108407 -17.782671 0.000000 -0.000000 0.000000 0.934497 -10.912342 31.887182 3.354657 0.730932 -4.219550 1.894990 -3.440607 -0.761643 -3.258278 1.406972 -22.781444 1.271239 -5.341026 -4.863903 -21.108234 -6.817541 -4.849478 -51.499728 -25.572979 14.502052 140.863608 -61.707855 -113.763771 17.047774 -13.316612 -16.251344 24.916494 0.996868 2.310199 46.082519 -15.034348 11.037886 -9.581244 50.470540 -1.158791 -9.113886 10.902482 -11.650419 
2.379209 0.311108 0.877107 -75.554497 1.797802 103.176782 7.216054 -2.814404 7.934948 -9.906382 -23.950720 27.370026 -7.451488 7.939547 -21.773190 0.000000 -0.000000 0.000000 -12.371072 -3.223712 -62.372459 -0.901462 -21.780325 74.849925 7.943344 -1.063773 -18.326084 0.000000 -0.000000 0.000000 3.577352 -14.329128 29.828146 3.924328 0.662245 -4.068315 2.874670 -4.693815 -0.588538 -4.571765 3.929789 -22.804122 0.653635 -3.873356 -5.713315 -18.019478 -5.448410 -5.173025 -54.760490 -28.400340 15.519606 148.815678 -56.519558 -121.056839 20.012860 -14.666055 -18.390863 21.164411 -3.479324 3.553587 45.173966 -19.802226 10.759271 -4.487471 61.388553 7.140103 -10.390757 12.944705 -14.512271 
2.305720 0.312738 0.885062 -75.473312 2.067564 104.379848 8.733496 -2.103886 11.340024 -7.612823 -24.632126 22.872163 -12.554006 7.147378 -7.386358 0.000000 -0.000000 0.000000 -13.486757 -2.439991 -63.430012 -0.857198 -22.762442 66.079230 8.540681 -0.035016 -16.665339 0.000000 -0.000000 0.000000 4.360361 -15.776001 28.169801 4.022679 0.406645 -3.334252 3.006149 -4.802206 -0.741793 -5.061449 5.690251 -22.622179 0.504851 -3.176413 -6.620071 -16.735959 -3.969731 -5.205816 -56.102137 -27.911457 17.029730 153.707471 -54.890225 -125.683929 20.944321 -15.702277 -21.222251 19.313204 -5.196744 4.644954 46.434702 -21.036696 10.534673 -3.197677 65.271102 9.936977 -11.587649 13.550400 -16.310392 
